# xmcd
#
# Track frame offsets: 
#        150
#        14529
#        29791
#        44841
#        59948
#        72283
#        86354
#        100200
#        114318
#        126477
#        139955
#        154651
#        167290
#        181140
#        195434
#        208102
#        221640
#        235829
#        248354
#        261690
#        274910
#        287466
#        300358
#        312752
#        326139
#
# Disc length: 4520 seconds
#
# Revision: 1
# Processed by: cddbd v1.5.2PL0 Copyright (c) Steve Scherf et al.
# Submitted via: ExactAudioCopy v1.0b1
#
DISCID=7811a619
DTITLE=Various Artist - The Original Sonny Boy Williamson - Disc D
DYEAR=2007
DGENRE=Blues
TTITLE0=Sonny Boy Williamson - Goodbye Red
TTITLE1=Sonny Boy Williamson - The Right Kind Of Life
TTITLE2=Sonny Boy Williamson - Insurance Man Blues
TTITLE3=Sonny Boy Williamson - Rainy Day Bues
TTITLE4=Rambling Bob - Next Door Neighbor
TTITLE5=Rambling Bob - Big Apple Blues
TTITLE6=Rambling Bob - Freight Train Blues
TTITLE7=Rambling Bob - Good Gamblin'
TTITLE8=Sonny Boy Williamson - Bad Luck Blues
TTITLE9=Sonny Boy Williamson - My Little Baby
TTITLE10=Sonny Boy Williamson - Doggin' My Love Around
TTITLE11=Sonny Boy Williamson - Little Low Woman Blues
TTITLE12=Sonny Boy Williamson - Good For Nothing Blues
TTITLE13=Sonny Boy Williamson - Sugar Mama Blues No. 2
TTITLE14=Sonny Boy Williamson - Good Gravy
TTITLE15=Sonny Boy Williamson - T.B. Blues
TTITLE16=Sonny Boy Williamson - Something Goin' On Wrong
TTITLE17=Sonny Boy Williamson - Good Gal Blues
TTITLE18=Sonny Boy Williamson - Joe Louis And John Henry Blues
TTITLE19=Sonny Boy Williamson - Thinking My Blues Away
TTITLE20=Sonny Boy Williamson - I'm Not Pleasing You
TTITLE21=Sonny Boy Williamson - New Jail House Blues
TTITLE22=Sonny Boy Williamson - Life Time Blues
TTITLE23=Sonny Boy Williamson - Miss Ida Lee
TTITLE24=Sonny Boy Williamson - Tell Me, Baby
EXTD=
EXTT0=
EXTT1=
EXTT2=
EXTT3=
EXTT4=
EXTT5=
EXTT6=
EXTT7=
EXTT8=
EXTT9=
EXTT10=
EXTT11=
EXTT12=
EXTT13=
EXTT14=
EXTT15=
EXTT16=
EXTT17=
EXTT18=
EXTT19=
EXTT20=
EXTT21=
EXTT22=
EXTT23=
EXTT24=
PLAYORDER=
